<svg width="65" height="86" viewBox="0 0 65 86" fill="none" xmlns="http://www.w3.org/2000/svg">
<line x1="41.8962" y1="76.9086" x2="45.7607" y2="31.9243" stroke="#222222" stroke-width="3"/>
<path d="M50.0391 33.1418C54.7731 30.2973 56.3049 24.1538 53.4604 19.4198C50.6159 14.6858 44.4723 13.154 39.7383 15.9985" stroke="#222222" stroke-width="3"/>
<path d="M38.9746 28.0227C42.2983 23.6119 41.4171 17.3419 37.0064 14.0181C32.5956 10.6944 26.3256 11.5756 23.0019 15.9864" stroke="#222222" stroke-width="3"/>
<path d="M20.9745 25.0227C24.2983 20.6119 23.4171 14.3419 19.0063 11.0181C14.5956 7.69442 8.32557 8.57561 5.00184 12.9864" stroke="#222222" stroke-width="3"/>
<rect x="17.24" y="33.73" width="5.68182" height="5.68182" transform="rotate(7 17.24 33.73)" fill="#222222"/>
<rect x="15.3011" y="49.5205" width="5.68182" height="5.68182" transform="rotate(7 15.3011 49.5205)" fill="#222222"/>
<rect x="16.2706" y="41.6253" width="5.68182" height="5.68182" transform="rotate(7 16.2706 41.6253)" fill="#222222"/>
<rect x="24.9968" y="35.8273" width="17.0455" height="2.84091" transform="rotate(7 24.9968 35.8273)" fill="#222222"/>
<rect x="24.062" y="43.4406" width="17.0455" height="2.84091" transform="rotate(7 24.062 43.4406)" fill="#222222"/>
<rect x="23.0718" y="51.505" width="17.0455" height="2.84091" transform="rotate(7 23.0718 51.505)" fill="#222222"/>
</svg>
