<svg width="65" height="65" viewBox="0 0 65 65" fill="none" xmlns="http://www.w3.org/2000/svg">
<line x1="46.508" y1="60.8457" x2="49.8162" y2="28.8663" stroke="#222222" stroke-width="3"/>
<path d="M50.0391 31.1418C54.7731 28.2973 56.3049 22.1538 53.4604 17.4198C50.6159 12.6858 44.4723 11.154 39.7383 13.9985" stroke="#222222" stroke-width="3"/>
<path d="M38.9745 26.0227C42.2983 21.6119 41.4171 15.3419 37.0063 12.0181C32.5956 8.69442 26.3256 9.57561 23.0018 13.9864" stroke="#222222" stroke-width="3"/>
<path d="M20.9745 23.0227C24.2983 18.6119 23.4171 12.3419 19.0063 9.01815C14.5956 5.69442 8.32556 6.57561 5.00182 10.9864" stroke="#222222" stroke-width="3"/>
<rect x="17.24" y="31.73" width="5.68182" height="5.68182" transform="rotate(7 17.24 31.73)" fill="#222222"/>
<rect x="15.3011" y="47.5205" width="5.68182" height="5.68182" transform="rotate(7 15.3011 47.5205)" fill="#222222"/>
<rect x="16.2706" y="39.6253" width="5.68182" height="5.68182" transform="rotate(7 16.2706 39.6253)" fill="#222222"/>
<rect x="24.9968" y="33.8273" width="17.0455" height="2.84091" transform="rotate(7 24.9968 33.8273)" fill="#222222"/>
<rect x="24.062" y="41.4406" width="17.0455" height="2.84091" transform="rotate(7 24.062 41.4406)" fill="#222222"/>
<rect x="23.0718" y="49.505" width="17.0455" height="2.84091" transform="rotate(7 23.0718 49.505)" fill="#222222"/>
</svg>
