<svg width="340" height="220" viewBox="0 0 340 220" fill="none" xmlns="http://www.w3.org/2000/svg">
<g clip-path="url(#clip0)">
<path d="M163.738 45.24C163.13 45.24 162.618 45.032 162.202 44.616C161.786 44.2 161.578 43.688 161.578 43.08V13.464C161.578 12.856 161.786 12.344 162.202 11.928C162.618 11.48 163.13 11.256 163.738 11.256C164.346 11.256 164.858 11.48 165.274 11.928C165.722 12.344 165.946 12.856 165.946 13.464V43.08C165.946 43.688 165.722 44.2 165.274 44.616C164.858 45.032 164.346 45.24 163.738 45.24ZM117.024 117C116.192 117 115.472 116.712 114.864 116.136C114.288 115.528 114 114.808 114 113.976V85.464C114 84.856 114.208 84.344 114.624 83.928C115.04 83.48 115.552 83.256 116.16 83.256C116.768 83.256 117.28 83.48 117.696 83.928C118.144 84.344 118.368 84.856 118.368 85.464V112.632H134.064C134.672 112.632 135.184 112.856 135.6 113.304C136.048 113.72 136.272 114.232 136.272 114.84C136.272 115.448 136.048 115.96 135.6 116.376C135.184 116.792 134.672 117 134.064 117H117.024ZM151.592 117.48C149.128 117.48 146.968 116.952 145.112 115.896C143.256 114.84 141.816 113.352 140.792 111.432C139.8 109.48 139.304 107.256 139.304 104.76C139.304 102.264 139.8 100.056 140.792 98.136C141.816 96.184 143.256 94.68 145.112 93.624C146.968 92.568 149.128 92.04 151.592 92.04C154.024 92.04 156.168 92.568 158.024 93.624C159.88 94.68 161.32 96.184 162.344 98.136C163.368 100.056 163.88 102.264 163.88 104.76C163.88 107.256 163.368 109.48 162.344 111.432C161.32 113.352 159.88 114.84 158.024 115.896C156.168 116.952 154.024 117.48 151.592 117.48ZM151.592 113.496C152.904 113.496 154.152 113.192 155.336 112.584C156.552 111.976 157.544 111.016 158.312 109.704C159.112 108.392 159.512 106.728 159.512 104.712C159.512 102.728 159.112 101.08 158.312 99.768C157.544 98.456 156.552 97.512 155.336 96.936C154.152 96.328 152.904 96.024 151.592 96.024C150.248 96.024 148.968 96.328 147.752 96.936C146.568 97.512 145.592 98.456 144.824 99.768C144.056 101.08 143.672 102.728 143.672 104.712C143.672 106.728 144.056 108.392 144.824 109.704C145.592 111.016 146.568 111.976 147.752 112.584C148.968 113.192 150.248 113.496 151.592 113.496ZM178.355 117.24C177.779 117.24 177.251 117.08 176.771 116.76C176.291 116.408 175.939 115.976 175.715 115.464L167.363 95.496C167.203 95.112 167.123 94.776 167.123 94.488C167.123 93.88 167.331 93.368 167.747 92.952C168.163 92.504 168.675 92.28 169.283 92.28C169.699 92.28 170.083 92.408 170.435 92.664C170.819 92.888 171.091 93.176 171.251 93.528L178.595 112.152L185.939 93.528C186.099 93.176 186.355 92.888 186.707 92.664C187.091 92.408 187.491 92.28 187.907 92.28C188.515 92.28 189.027 92.504 189.443 92.952C189.859 93.368 190.067 93.88 190.067 94.488C190.067 94.776 189.987 95.112 189.827 95.496L181.475 115.464C181.251 115.976 180.899 116.408 180.419 116.76C179.939 117.08 179.411 117.24 178.835 117.24H178.355ZM205.736 117.48C201.832 117.48 198.776 116.376 196.568 114.168C194.392 111.928 193.304 108.792 193.304 104.76C193.304 102.488 193.72 100.392 194.552 98.472C195.384 96.552 196.664 95 198.392 93.816C200.12 92.632 202.248 92.04 204.776 92.04C207.144 92.04 209.192 92.6 210.92 93.72C212.648 94.808 213.96 96.28 214.856 98.136C215.752 99.96 216.2 101.96 216.2 104.136C216.2 104.744 215.992 105.256 215.576 105.672C215.192 106.088 214.664 106.296 213.992 106.296H197.72C197.976 108.536 198.808 110.28 200.216 111.528C201.624 112.776 203.592 113.4 206.12 113.4C207.464 113.4 208.632 113.272 209.624 113.016C210.648 112.76 211.64 112.392 212.6 111.912C212.856 111.784 213.144 111.72 213.464 111.72C213.976 111.72 214.424 111.896 214.808 112.248C215.192 112.6 215.384 113.048 215.384 113.592C215.384 114.296 214.968 114.888 214.136 115.368C212.888 116.072 211.656 116.6 210.44 116.952C209.224 117.304 207.656 117.48 205.736 117.48ZM211.88 102.744C211.784 101.176 211.368 99.864 210.632 98.808C209.928 97.752 209.048 96.984 207.992 96.504C206.936 95.992 205.864 95.736 204.776 95.736C203.688 95.736 202.616 95.992 201.56 96.504C200.504 96.984 199.624 97.752 198.92 98.808C198.216 99.864 197.816 101.176 197.72 102.744H211.88ZM118.832 189.24C118.224 189.24 117.712 189.032 117.296 188.616C116.88 188.2 116.672 187.688 116.672 187.08V157.704C116.672 157.096 116.88 156.584 117.296 156.168C117.712 155.72 118.224 155.496 118.832 155.496H137.504C138.08 155.496 138.56 155.704 138.944 156.12C139.36 156.504 139.568 156.984 139.568 157.56C139.568 158.136 139.36 158.616 138.944 159C138.56 159.384 138.08 159.576 137.504 159.576H121.04V170.184H135.824C136.4 170.184 136.88 170.392 137.264 170.808C137.68 171.192 137.888 171.672 137.888 172.248C137.888 172.824 137.68 173.304 137.264 173.688C136.88 174.072 136.4 174.264 135.824 174.264H121.04V187.08C121.04 187.688 120.816 188.2 120.368 188.616C119.952 189.032 119.44 189.24 118.832 189.24ZM153.889 189.48C151.425 189.48 149.265 188.952 147.409 187.896C145.553 186.84 144.113 185.352 143.089 183.432C142.097 181.48 141.601 179.256 141.601 176.76C141.601 174.264 142.097 172.056 143.089 170.136C144.113 168.184 145.553 166.68 147.409 165.624C149.265 164.568 151.425 164.04 153.889 164.04C156.321 164.04 158.465 164.568 160.321 165.624C162.177 166.68 163.617 168.184 164.641 170.136C165.665 172.056 166.177 174.264 166.177 176.76C166.177 179.256 165.665 181.48 164.641 183.432C163.617 185.352 162.177 186.84 160.321 187.896C158.465 188.952 156.321 189.48 153.889 189.48ZM153.889 185.496C155.201 185.496 156.449 185.192 157.633 184.584C158.849 183.976 159.841 183.016 160.609 181.704C161.409 180.392 161.809 178.728 161.809 176.712C161.809 174.728 161.409 173.08 160.609 171.768C159.841 170.456 158.849 169.512 157.633 168.936C156.449 168.328 155.201 168.024 153.889 168.024C152.545 168.024 151.265 168.328 150.049 168.936C148.865 169.512 147.889 170.456 147.121 171.768C146.353 173.08 145.969 174.728 145.969 176.712C145.969 178.728 146.353 180.392 147.121 181.704C147.889 183.016 148.865 183.976 150.049 184.584C151.265 185.192 152.545 185.496 153.889 185.496ZM183.092 189.48C180.628 189.48 178.468 188.952 176.612 187.896C174.756 186.84 173.316 185.352 172.292 183.432C171.3 181.48 170.804 179.256 170.804 176.76C170.804 174.264 171.3 172.056 172.292 170.136C173.316 168.184 174.756 166.68 176.612 165.624C178.468 164.568 180.628 164.04 183.092 164.04C185.524 164.04 187.668 164.568 189.524 165.624C191.38 166.68 192.82 168.184 193.844 170.136C194.868 172.056 195.38 174.264 195.38 176.76C195.38 179.256 194.868 181.48 193.844 183.432C192.82 185.352 191.38 186.84 189.524 187.896C187.668 188.952 185.524 189.48 183.092 189.48ZM183.092 185.496C184.404 185.496 185.652 185.192 186.836 184.584C188.052 183.976 189.044 183.016 189.812 181.704C190.612 180.392 191.012 178.728 191.012 176.712C191.012 174.728 190.612 173.08 189.812 171.768C189.044 170.456 188.052 169.512 186.836 168.936C185.652 168.328 184.404 168.024 183.092 168.024C181.748 168.024 180.468 168.328 179.252 168.936C178.068 169.512 177.092 170.456 176.324 171.768C175.556 173.08 175.172 174.728 175.172 176.712C175.172 178.728 175.556 180.392 176.324 181.704C177.092 183.016 178.068 183.976 179.252 184.584C180.468 185.192 181.748 185.496 183.092 185.496ZM211.623 189.48C209.639 189.48 207.751 188.984 205.959 187.992C204.199 186.968 202.759 185.496 201.639 183.576C200.551 181.624 200.007 179.352 200.007 176.76C200.007 174.168 200.551 171.912 201.639 169.992C202.759 168.04 204.199 166.568 205.959 165.576C207.751 164.552 209.639 164.04 211.623 164.04C214.759 164.04 217.495 165.256 219.831 167.688V155.928C219.831 155.288 220.039 154.76 220.455 154.344C220.903 153.928 221.431 153.72 222.039 153.72C222.647 153.72 223.159 153.944 223.575 154.392C223.991 154.808 224.199 155.32 224.199 155.928V187.08C224.199 187.688 223.991 188.2 223.575 188.616C223.159 189.032 222.647 189.24 222.039 189.24C221.431 189.24 220.903 189.032 220.455 188.616C220.039 188.2 219.831 187.688 219.831 187.08V185.832C217.495 188.264 214.759 189.48 211.623 189.48ZM212.247 185.4C213.719 185.4 215.095 185.08 216.375 184.44C217.687 183.768 218.839 182.888 219.831 181.8V171.72C218.839 170.632 217.687 169.768 216.375 169.128C215.095 168.456 213.719 168.12 212.247 168.12C209.879 168.12 207.975 168.872 206.535 170.376C205.095 171.88 204.375 174.008 204.375 176.76C204.375 179.512 205.095 181.64 206.535 183.144C207.975 184.648 209.879 185.4 212.247 185.4Z" fill="black"/>
</g>
<defs>
<clipPath id="clip0">
<rect width="340" height="220" fill="white"/>
</clipPath>
</defs>
</svg>
